<?xml version="1.0" standalone="no"?>
<!DOCTYPE svg PUBLIC "-//W3C//DTD SVG 20010904//EN"
 "http://www.w3.org/TR/2001/REC-SVG-20010904/DTD/svg10.dtd">
<svg version="1.0" xmlns="http://www.w3.org/2000/svg"
 width="956.000000pt" height="878.000000pt" viewBox="0 0 956.000000 878.000000"
 preserveAspectRatio="xMidYMid meet">
<metadata>
Created by potrace 1.16, written by Peter Selinger 2001-2019
</metadata>
<g transform="translate(0.000000,878.000000) scale(0.100000,-0.100000)"
fill="currentColor" stroke="none">
<path d="M3480 8473 c-25 -2 -97 -15 -162 -28 -122 -26 -283 -92 -364 -151
-23 -16 -60 -38 -83 -49 -35 -15 -42 -23 -38 -41 2 -14 -2 -25 -9 -28 -8 -3
-14 1 -14 9 0 21 -39 19 -75 -4 -16 -10 -62 -48 -102 -85 -39 -36 -89 -74
-110 -82 -21 -9 -64 -41 -97 -71 -32 -30 -81 -71 -110 -92 -67 -51 -259 -228
-288 -266 -13 -17 -60 -66 -104 -108 -45 -42 -94 -96 -110 -120 -15 -23 -36
-52 -47 -64 -10 -11 -25 -38 -32 -60 -9 -28 -23 -43 -51 -58 -28 -15 -46 -35
-63 -70 -13 -28 -30 -54 -37 -58 -8 -4 -14 -17 -14 -28 0 -11 -10 -23 -22 -28
-13 -5 -38 -29 -56 -53 -42 -55 -122 -189 -122 -205 0 -7 -16 -27 -36 -45 -42
-40 -78 -147 -68 -209 6 -35 3 -41 -42 -84 -74 -72 -100 -110 -129 -186 -15
-39 -38 -81 -52 -93 -18 -17 -32 -52 -52 -128 -17 -65 -39 -121 -58 -149 -34
-50 -41 -74 -53 -177 -4 -40 -15 -81 -23 -90 -8 -9 -18 -32 -22 -51 -7 -33
-44 -122 -71 -173 -20 -36 -18 -58 5 -58 11 0 22 -4 25 -9 7 -11 -17 -21 -49
-21 -19 0 -24 -7 -29 -40 -3 -23 -15 -57 -26 -78 -11 -20 -20 -46 -20 -57 0
-21 -43 -242 -61 -310 -6 -22 -14 -87 -19 -145 -9 -125 -25 -187 -55 -217 -18
-17 -23 -37 -29 -110 -13 -172 -29 -278 -46 -303 -9 -14 -20 -34 -24 -45 -13
-34 -28 -174 -33 -301 -4 -98 -2 -128 11 -153 16 -29 15 -31 -12 -59 -27 -28
-29 -36 -35 -143 -4 -63 -12 -130 -18 -149 -5 -19 -12 -141 -14 -270 -2 -129
-6 -242 -8 -250 -6 -17 -14 -69 -23 -157 -9 -81 -1 -109 33 -118 l28 -8 -32
-9 -32 -8 -1 -203 c0 -111 5 -229 10 -262 6 -33 10 -134 10 -225 0 -153 5
-208 42 -445 6 -38 14 -95 19 -125 36 -256 56 -361 73 -375 16 -13 27 -55 15
-55 -15 0 -10 -47 6 -64 8 -8 20 -38 25 -67 11 -59 51 -127 105 -179 33 -32
41 -35 111 -38 74 -4 76 -4 109 28 21 21 45 62 65 114 17 44 42 106 56 136 27
61 43 129 42 175 0 17 11 55 24 85 40 89 87 241 98 315 5 39 21 111 34 160 65
246 76 293 76 335 1 25 8 63 16 85 9 22 20 65 25 95 4 30 20 88 34 129 14 41
25 91 25 111 0 20 5 41 11 47 5 5 12 37 15 69 7 84 25 167 39 179 7 6 15 41
19 78 7 65 19 115 68 298 l23 86 82 12 c47 6 96 20 115 32 18 11 62 39 98 62
36 22 81 50 100 60 19 11 37 22 40 26 3 4 28 24 57 44 29 21 67 57 85 80 18
23 57 68 87 100 30 32 62 70 72 85 9 15 44 50 77 77 33 28 66 62 72 78 7 15
16 27 21 27 5 0 14 11 21 25 6 13 33 47 59 75 31 32 49 59 49 74 0 16 11 32
29 46 22 15 31 30 33 57 3 32 7 38 35 45 18 5 34 17 38 28 4 11 10 20 15 20 4
0 19 28 33 63 14 34 45 92 69 129 94 145 122 195 130 234 6 28 24 57 53 88 58
60 91 111 104 162 6 22 24 59 40 81 31 43 88 164 145 307 20 49 47 106 60 125
34 49 76 166 76 208 0 34 -1 35 -30 30 -16 -4 -32 -2 -35 3 -3 5 16 12 42 16
54 8 63 16 63 60 0 20 13 51 35 83 19 28 35 60 35 72 0 12 11 37 24 54 28 36
89 184 107 260 7 28 22 68 35 90 13 22 28 65 35 95 22 108 69 263 89 295 14
22 20 50 20 89 0 35 10 84 25 129 14 39 30 103 36 141 6 39 24 102 39 140 32
79 60 205 60 264 0 22 7 59 16 83 31 84 57 447 50 689 -9 263 -13 289 -43 301
-19 7 -23 14 -18 29 13 40 -7 84 -64 143 -125 132 -206 158 -431 140z m205
-195 c25 -8 47 -25 60 -45 11 -18 28 -35 38 -38 10 -4 17 -16 17 -31 0 -14 5
-34 10 -44 13 -25 41 -204 45 -290 8 -163 -23 -528 -61 -715 -20 -104 -35
-198 -60 -385 -3 -24 -14 -60 -23 -80 -17 -34 -40 -112 -59 -200 -34 -152 -77
-300 -139 -475 -14 -38 -29 -97 -33 -130 -7 -65 -14 -87 -40 -125 -24 -36 -89
-195 -106 -260 -20 -77 -44 -128 -74 -160 -14 -15 -30 -42 -37 -61 -37 -110
-55 -155 -67 -173 -7 -12 -21 -44 -30 -73 -9 -28 -23 -56 -31 -63 -7 -6 -36
-63 -65 -128 -28 -64 -56 -126 -63 -137 -6 -11 -29 -54 -51 -95 -21 -41 -49
-91 -61 -110 -13 -20 -37 -65 -55 -100 -51 -102 -278 -458 -337 -530 -16 -19
-36 -51 -43 -70 -8 -19 -31 -50 -52 -68 -21 -19 -67 -75 -103 -126 -38 -55
-92 -117 -132 -151 -38 -32 -107 -96 -154 -144 -111 -112 -214 -201 -232 -201
-7 0 -48 -23 -90 -51 -89 -60 -114 -61 -102 -1 15 80 26 139 35 192 9 55 16
94 44 225 8 39 22 108 31 155 9 47 23 105 30 130 8 25 24 110 35 190 11 80 28
170 37 200 9 30 19 84 24 120 7 61 21 151 47 295 6 33 23 128 37 210 15 83 34
176 42 207 11 39 14 75 9 115 -4 40 -1 74 9 108 9 28 15 69 13 92 -1 23 3 47
9 55 6 7 13 81 16 173 3 88 10 210 16 270 5 61 9 191 7 290 -3 200 -13 249
-72 340 -32 51 -34 52 -103 65 -66 12 -72 12 -91 -5 -51 -46 -96 -157 -86
-211 6 -31 5 -33 -26 -36 l-33 -3 -1 -69 c-1 -68 -2 -69 -35 -85 -30 -14 -35
-22 -41 -70 -5 -29 -14 -67 -22 -85 -53 -125 -84 -233 -95 -331 -7 -58 -15
-82 -40 -117 -38 -53 -53 -118 -27 -118 9 0 16 -4 16 -10 0 -5 -4 -10 -10 -10
-5 0 -10 -7 -10 -16 0 -17 -14 -33 -45 -50 -14 -8 -28 -41 -47 -115 -16 -57
-35 -124 -44 -149 -39 -108 -95 -382 -92 -449 1 -28 -5 -51 -19 -70 -12 -15
-30 -69 -41 -119 -12 -54 -33 -115 -51 -147 -28 -49 -31 -62 -25 -102 4 -26 2
-53 -4 -66 -6 -12 -18 -47 -26 -77 -8 -30 -22 -82 -31 -115 -20 -77 -56 -177
-67 -190 -4 -5 -8 -25 -8 -45 -1 -19 -7 -62 -15 -95 -8 -33 -15 -75 -15 -94 0
-19 -10 -55 -22 -80 -19 -39 -23 -67 -26 -178 -3 -73 -8 -133 -13 -133 -19 0
-58 -111 -74 -205 -26 -159 -36 -205 -61 -280 -13 -38 -26 -95 -30 -126 l-6
-57 32 -7 c39 -9 34 -27 -9 -36 -18 -4 -38 -12 -44 -18 -6 -6 -15 -64 -20
-128 -9 -126 -34 -233 -54 -233 -27 0 -36 146 -19 332 l9 98 -24 1 c-24 0 -24
0 -2 9 l22 9 -6 255 c-3 176 -1 271 7 308 6 29 15 125 20 213 6 88 16 189 25
225 8 36 15 90 15 120 1 30 6 78 11 105 5 28 14 97 20 155 5 58 21 147 35 199
14 51 29 141 34 200 6 71 17 126 33 166 23 58 51 185 81 360 18 108 94 395
112 422 15 24 38 159 29 173 -3 5 0 12 7 17 38 24 61 66 78 144 10 46 30 109
44 140 14 30 30 79 36 108 5 29 21 74 34 99 45 88 106 218 106 227 0 27 65
175 91 208 17 21 39 59 51 85 39 91 85 178 126 236 23 33 42 71 42 85 0 29 58
131 100 176 15 17 45 57 66 90 36 58 87 125 159 212 19 23 35 45 35 50 0 4 33
43 73 86 39 42 86 94 102 114 17 20 64 63 105 95 41 33 94 83 117 111 73 88
95 108 208 194 156 117 226 173 266 211 98 94 297 192 407 199 57 4 62 6 62
28 0 30 3 32 135 77 106 37 114 38 220 34 61 -3 128 -10 150 -18z m-1888
-2225 c37 -56 13 -740 -37 -1039 -5 -33 -10 -80 -10 -104 0 -42 -15 -154 -45
-325 -7 -44 -21 -125 -30 -180 -20 -125 -72 -415 -92 -515 -8 -41 -18 -109
-23 -150 -16 -129 -40 -284 -50 -315 -5 -16 -14 -61 -20 -100 -14 -89 -27
-107 -82 -122 -64 -17 -72 -41 -63 -195 12 -223 10 -255 -24 -378 -33 -124
-43 -254 -18 -263 6 -3 -3 -6 -20 -6 -27 -1 -33 -5 -33 -23 0 -13 -10 -57 -21
-98 -11 -41 -29 -118 -39 -170 -10 -52 -30 -144 -43 -205 -14 -60 -30 -141
-36 -180 -13 -83 -72 -284 -129 -445 -17 -47 -44 -132 -61 -190 -16 -58 -37
-125 -46 -150 -9 -25 -27 -83 -40 -130 -32 -116 -71 -220 -90 -239 -12 -12
-19 -13 -33 -5 -31 20 -87 131 -110 221 -13 48 -32 117 -42 153 -10 36 -24 97
-30 135 -6 39 -16 94 -22 123 -11 53 -11 54 18 77 16 14 34 24 41 25 24 0 53
163 52 300 0 41 7 131 15 200 15 119 20 152 46 334 6 43 15 88 20 100 4 12 11
48 15 79 l7 57 -31 0 c-19 0 -30 4 -26 10 3 6 21 10 38 10 18 0 37 4 43 8 10
7 24 60 48 192 7 36 16 72 21 80 5 8 12 53 16 100 4 47 14 110 23 140 9 30 19
96 22 145 5 58 14 104 26 129 20 40 47 196 48 275 0 24 8 69 19 100 63 189 80
256 101 401 9 68 25 121 84 284 20 55 36 114 36 131 0 17 11 74 25 126 14 51
30 118 35 148 5 30 20 84 34 120 42 116 65 204 72 276 4 45 15 84 30 111 13
23 29 71 36 108 9 50 17 66 29 66 13 0 18 13 21 63 3 45 11 73 30 102 26 39
88 229 88 268 0 10 16 46 36 80 19 33 42 81 51 106 27 81 74 171 88 171 8 0
22 -12 32 -27z"/>
<path d="M5407 4693 c-14 -16 -33 -34 -41 -41 -9 -7 -16 -26 -16 -41 0 -16 -9
-48 -19 -72 -11 -24 -29 -88 -40 -142 -11 -54 -24 -104 -29 -110 -18 -23 -38
-557 -22 -587 6 -11 6 -21 1 -24 -5 -4 -12 -40 -16 -81 -6 -63 -10 -75 -26
-75 -9 0 -20 -8 -23 -18 -3 -10 -10 -144 -16 -299 -5 -154 -14 -332 -19 -394
-17 -199 -23 -508 -11 -589 22 -150 50 -248 81 -281 16 -17 29 -37 29 -45 0
-17 57 -27 95 -16 l30 9 -3 68 c-2 38 -12 92 -23 119 -28 71 -37 380 -18 591
7 83 13 251 14 375 1 124 8 311 17 415 9 105 15 204 14 220 -3 87 18 371 34
445 10 47 27 130 39 185 15 68 28 105 41 115 22 18 51 113 50 167 0 21 3 55 6
77 8 46 -3 56 -62 56 -32 0 -47 -6 -67 -27z"/>
<path d="M6241 4177 c-13 -6 -36 -34 -50 -62 -15 -27 -48 -88 -73 -135 -26
-47 -49 -97 -53 -111 -4 -14 -26 -48 -49 -75 -55 -63 -197 -295 -220 -359 -10
-27 -31 -63 -47 -80 -15 -16 -40 -55 -54 -87 -14 -31 -31 -61 -38 -66 -16 -14
-65 -119 -118 -252 -22 -58 -45 -110 -50 -116 -5 -6 -20 -44 -34 -84 -14 -41
-32 -84 -40 -96 -8 -13 -19 -52 -24 -88 -9 -60 -22 -111 -42 -161 -20 -51 -20
-67 5 -119 27 -58 39 -66 92 -66 32 0 37 4 55 45 11 25 25 72 31 105 10 57 12
60 39 60 16 0 29 5 29 10 0 6 12 10 27 10 21 0 24 -3 15 -12 -17 -17 -15 -45
6 -53 9 -4 75 -11 146 -16 137 -8 210 2 359 52 32 11 79 21 105 22 39 2 48 6
50 22 2 11 11 25 21 30 67 37 73 39 89 28 20 -12 28 -79 12 -98 -20 -24 6
-116 53 -185 63 -95 160 -164 270 -191 43 -10 57 -9 144 16 114 32 150 53 234
135 56 55 88 80 103 80 15 0 26 -48 36 -150 7 -62 16 -123 20 -136 26 -67 112
-88 149 -35 12 17 21 45 21 66 0 53 29 174 51 209 10 17 19 45 19 62 0 45 28
119 56 149 13 14 24 30 24 35 0 34 124 255 189 336 5 6 12 21 16 35 17 54 56
118 84 139 17 11 38 34 48 50 9 17 23 30 31 30 7 0 18 14 23 30 6 17 14 30 18
30 4 0 37 26 73 58 36 31 99 77 138 102 40 25 94 62 121 82 56 42 121 73 258
124 53 20 106 42 119 50 12 8 84 28 160 44 220 46 346 81 366 100 25 24 14 77
-20 92 -35 16 -414 -8 -464 -28 -19 -9 -73 -19 -119 -24 -77 -8 -329 -87 -355
-111 -6 -5 -18 -9 -28 -9 -22 0 -206 -96 -235 -123 -13 -12 -23 -32 -23 -48 0
-22 -4 -26 -19 -22 -10 3 -31 -3 -46 -13 -26 -17 -124 -133 -159 -188 -10 -16
-35 -46 -55 -66 -20 -20 -56 -63 -81 -95 -75 -97 -116 -139 -128 -131 -7 4
-12 27 -12 51 0 76 -31 124 -81 125 -18 0 -29 -8 -37 -25 -8 -17 -20 -25 -36
-25 -13 0 -27 -8 -31 -17 -4 -10 -10 -94 -14 -187 -7 -165 -8 -170 -32 -185
-40 -26 -148 -145 -149 -163 0 -12 12 -19 48 -24 l47 -8 -35 -7 c-19 -4 -38
-5 -43 -2 -17 10 -57 -9 -108 -52 -49 -42 -178 -105 -215 -105 -37 0 -136 44
-152 68 -9 14 -29 37 -43 52 -24 27 -25 29 -7 41 12 9 18 26 18 54 0 47 25
138 46 170 8 13 35 35 59 51 45 28 62 49 127 159 67 112 81 286 29 355 -16 22
-26 25 -72 24 -86 -2 -134 -32 -170 -107 -16 -34 -29 -68 -29 -75 0 -17 -57
-135 -92 -191 -22 -35 -45 -54 -110 -89 -46 -24 -102 -50 -125 -57 -23 -7 -54
-22 -70 -33 -127 -89 -313 -137 -451 -116 -76 12 -124 37 -130 69 -2 9 11 33
30 54 58 60 78 92 78 121 0 17 7 30 16 34 13 5 15 15 11 47 -4 33 2 53 38 122
107 206 195 382 200 406 4 14 31 60 60 101 30 41 80 127 111 190 31 63 65 121
75 128 12 8 19 25 19 44 0 19 9 41 21 55 27 28 36 106 19 159 -18 56 -41 66
-89 41z"/>
<path d="M3255 3650 c-29 -12 -103 -87 -150 -149 -22 -30 -48 -62 -57 -72 -25
-27 -134 -210 -194 -329 -30 -58 -63 -121 -74 -140 -11 -19 -29 -66 -40 -105
-12 -38 -27 -83 -35 -100 -23 -50 -65 -219 -80 -321 -6 -41 -6 -42 32 -52 l38
-10 -36 -1 c-20 -1 -41 -7 -48 -14 -11 -14 -8 -194 7 -334 6 -58 13 -81 39
-117 l33 -46 67 -2 c113 -4 176 1 189 14 8 7 22 38 33 68 42 120 75 210 127
345 9 22 21 55 27 73 7 17 18 32 24 32 9 0 13 15 13 43 0 31 6 49 19 61 11 10
22 38 26 65 7 54 39 114 58 108 16 -5 57 -77 57 -102 0 -11 18 -49 40 -85 29
-47 40 -76 40 -105 1 -22 7 -56 14 -75 8 -19 20 -51 26 -70 70 -195 100 -245
198 -332 40 -37 45 -38 115 -38 77 0 127 13 220 54 32 14 62 26 67 26 6 0 10
-17 10 -38 0 -21 7 -47 15 -59 24 -35 79 -63 122 -63 39 0 41 2 52 43 6 23 18
105 26 182 8 77 21 163 29 190 31 108 39 142 41 185 2 36 6 46 21 48 14 2 24
19 37 65 22 76 111 199 221 306 l77 74 62 -8 c34 -4 78 -8 97 -9 26 -1 38 -8
49 -28 8 -14 29 -33 47 -41 42 -21 120 -32 128 -19 4 6 1 43 -5 83 -8 56 -19
82 -43 113 -37 48 -45 54 -115 83 -107 45 -281 38 -389 -15 -69 -34 -162 -115
-208 -182 -21 -30 -51 -73 -67 -95 -16 -22 -35 -55 -42 -72 -10 -23 -21 -33
-35 -33 -20 0 -21 4 -14 48 4 26 11 57 15 70 5 13 9 76 9 139 0 141 -21 233
-53 233 -11 0 -25 -6 -31 -14 -14 -19 -86 -33 -86 -17 0 6 -9 11 -20 11 -15 0
-20 -7 -20 -29 0 -17 4 -32 8 -35 7 -4 6 -173 -4 -517 l-3 -107 31 -6 c33 -6
29 -21 -6 -28 -22 -4 -41 -67 -51 -173 -11 -121 -20 -138 -82 -169 -43 -22
-62 -27 -90 -21 -39 7 -103 62 -103 88 0 9 -11 38 -25 65 -14 28 -25 62 -25
77 0 14 -13 54 -30 88 -16 34 -34 86 -40 114 -5 29 -16 66 -25 82 -8 17 -15
45 -15 63 0 18 -7 42 -15 52 -8 11 -15 39 -15 61 0 23 -9 68 -20 100 -11 32
-20 68 -20 81 0 12 -13 47 -29 77 -16 30 -34 71 -41 91 -12 39 -38 48 -60 21
-18 -22 -60 -18 -86 6 -16 15 -30 20 -48 15 -27 -7 -41 -44 -71 -191 -9 -43
-24 -92 -32 -109 -30 -59 -76 -174 -113 -290 -22 -65 -46 -129 -54 -141 -9
-13 -25 -61 -37 -107 -12 -46 -30 -92 -40 -104 -10 -11 -19 -29 -19 -40 -1
-22 -22 -54 -37 -54 -5 0 -14 26 -20 58 -10 52 -9 59 9 79 16 17 19 29 13 55
-25 112 -25 108 6 108 l29 0 0 68 c0 40 9 97 21 138 46 154 62 201 86 244 14
25 34 69 44 98 10 29 30 67 44 83 14 17 28 43 31 57 4 15 17 38 29 52 12 14
30 46 39 73 18 48 78 136 133 195 36 38 80 43 108 12 35 -38 135 -15 135 32 0
28 -24 69 -60 103 -18 17 -40 46 -51 66 -24 49 -77 69 -124 49z"/>
</g>
</svg>
